PathFileType	4	(X/Y/Z)	 s02c0101.trc
DataRate	CameraRate	NumFrames	NumMarkers	Units	OrigDataRate	OrigDataStartFrame	OrigNumFrames
200	200	6	51	mm	200	1	2000
Frame#	Time	racr			lacr			c7			jug			rlel			rdr			llel			ldr			s2			lic			ric			lasi			rasi			rpsi			lpsi			rgt			lgt			rth1			rth2			rth3			rth4			rlfc			rmfc			rsh1			rsh2			rsh3			rsh4			rlmal			rmmal			rtoe			rmt5			rmt1			lth1			lth2			lth4			lth3			llfc			lmfc			lsh1			lsh2			lsh3			lsh4			llmal			lmmal			lcal			ltoe			lmt1			lmt5			SBIKE			LBIKE			RBIKE			
		X1	Y1	Z1	X2	Y2	Z2	X3	Y3	Z3	X4	Y4	Z4	X5	Y5	Z5	X6	Y6	Z6	X7	Y7	Z7	X8	Y8	Z8	X9	Y9	Z9	X10	Y10	Z10	X11	Y11	Z11	X12	Y12	Z12	X13	Y13	Z13	X14	Y14	Z14	X15	Y15	Z15	X16	Y16	Z16	X17	Y17	Z17	X18	Y18	Z18	X19	Y19	Z19	X20	Y20	Z20	X21	Y21	Z21	X22	Y22	Z22	X23	Y23	Z23	X24	Y24	Z24	X25	Y25	Z25	X26	Y26	Z26	X27	Y27	Z27	X28	Y28	Z28	X29	Y29	Z29	X30	Y30	Z30	X31	Y31	Z31	X32	Y32	Z32	X33	Y33	Z33	X34	Y34	Z34	X35	Y35	Z35	X36	Y36	Z36	X37	Y37	Z37	X38	Y38	Z38	X39	Y39	Z39	X40	Y40	Z40	X41	Y41	Z41	X42	Y42	Z42	X43	Y43	Z43	X44	Y44	Z44	X45	Y45	Z45	X46	Y46	Z46	X47	Y47	Z47	X48	Y48	Z48	X49	Y49	Z49	X50	Y50	Z50	X51	Y51	Z51	
1	0.0050	501.873241	1286.774152	-126.751088	527.382398	1307.169604	-463.128534	510.141765	1335.551593	-299.455446	469.613430	1204.689836	-306.647575	610.824899	1035.588432	-109.058537	725.887327	837.338084	-130.490701	590.281320	1035.491270	-514.519587	703.201520	835.173085	-475.450128	13.138982	1103.993264	-319.987592	159.930390	1099.956847	-456.357190	141.182587	1115.027951	-181.069260	203.254894	1062.778509	-434.049650	191.305719	1084.480338	-200.697992	32.961382	1146.062094	-279.757890	36.216713	1142.379781	-362.626135	116.904814	1041.020578	-134.256162	99.101064	1004.604384	-490.515682	203.469061	1013.257360	-129.784548	290.629820	1003.124889	-138.935016	362.919265	962.789958	-115.389390	299.873029	1026.301621	-167.795592	482.392306	875.043353	-148.523937	475.024747	855.182073	-260.960618	459.870359	764.160558	-132.366818	434.613817	681.640976	-151.361933	377.960331	615.753407	-143.914085	444.984333	677.378980	-189.367905	312.065696	514.905031	-148.097739	315.647985	534.293539	-228.371536	522.884272	471.016842	-188.219426	417.038081	447.595570	-128.798424	440.740000	463.114231	-237.131129	194.864956	899.147252	-507.828940	258.800235	840.589829	-506.149854	286.857075	857.488214	-488.165994	282.993648	754.494397	-505.970591	331.623050	664.851234	-483.972051	334.928583	635.786978	-381.023616	280.180088	573.154161	-502.373914	250.225733	493.555681	-485.105559	181.486449	435.191022	-486.467601	268.400101	485.433732	-449.477729	108.707340	357.417592	-468.726243	126.430932	347.525702	-391.538150	29.773764	337.764478	-428.410570	276.401795	192.478836	-440.272090	202.773861	228.334964	-392.721444	170.879833	221.178289	-498.540881	-162.840481	861.084627	-310.039402	37.464499	86.466101	-514.410912	34.491506	82.460613	-114.038644	
2	0.0100	501.829642	1286.743982	-126.722845	527.358076	1307.134936	-463.103361	510.115899	1335.534958	-299.438027	469.550510	1204.665139	-306.571261	610.807943	1035.586428	-109.062970	725.867646	837.347916	-130.477635	590.241685	1035.494169	-514.475930	703.189204	835.169701	-475.461977	13.139279	1103.981835	-319.994340	159.933339	1099.935257	-456.373157	141.207690	1115.024764	-181.106335	203.264641	1062.760482	-434.057338	191.299053	1084.483266	-200.689040	32.977132	1146.015264	-279.786988	36.254639	1142.359965	-362.660500	116.934313	1041.012849	-134.272728	99.114692	1004.591177	-490.510805	203.495332	1013.258130	-129.789236	290.637240	1003.135133	-138.949367	362.947100	962.799100	-115.387282	299.905905	1026.302460	-167.807910	482.396545	875.057872	-148.494634	475.055735	855.221076	-260.965320	459.924190	764.184320	-132.391475	434.654357	681.662191	-151.350839	377.981327	615.787967	-143.920391	445.012031	677.394937	-189.374320	312.127198	514.912903	-148.099898	315.685439	534.305955	-228.372359	522.900676	470.990914	-188.211544	417.061757	447.586874	-128.817678	440.766018	463.115190	-237.125616	194.871142	899.123650	-507.827590	258.809756	840.558717	-506.152599	286.860783	857.446869	-488.185531	282.962995	754.467232	-506.016831	331.613124	664.820156	-483.965333	334.915614	635.775374	-381.018630	280.174932	573.128253	-502.349136	250.195470	493.528151	-485.107064	181.478999	435.172388	-486.463141	268.379455	485.421919	-449.445120	108.659481	357.408908	-468.714587	126.395795	347.525523	-391.509581	29.736252	337.746496	-428.412623	276.401718	192.534094	-440.295905	202.747741	228.345844	-392.717797	170.868194	221.192497	-498.551686	-162.691693	861.016236	-310.155406	37.488463	86.434328	-514.434113	34.508234	82.449178	-114.034355	
3	0.0150	501.773568	1286.748537	-126.656771	527.344096	1307.129035	-463.105961	510.087672	1335.527382	-299.437716	469.529386	1204.677779	-306.555348	610.831496	1035.599009	-109.078836	725.892807	837.346156	-130.490311	590.232683	1035.498777	-514.416067	703.180104	835.166962	-475.457750	13.151229	1103.970753	-320.006533	159.933069	1099.930241	-456.374108	141.193926	1115.022328	-181.108721	203.270515	1062.763740	-434.056443	191.236134	1084.026194	-201.533441	32.980670	1145.996713	-279.800606	36.248323	1142.347250	-362.658115	116.949776	1041.002213	-134.276346	99.122006	1004.581990	-490.518316	203.501822	1013.279669	-129.783524	290.646819	1003.140335	-138.944813	362.957932	962.813049	-115.388953	299.909951	1026.304920	-167.800397	482.421673	875.076651	-148.493710	475.079796	855.241008	-260.962112	459.952478	764.199357	-132.375025	434.682035	681.677569	-151.345922	377.997429	615.800280	-143.907796	445.030250	677.416458	-189.368356	312.142052	514.957922	-148.099367	315.696540	534.324712	-228.369660	522.918720	470.963714	-188.216732	417.070617	447.584558	-128.804488	440.782711	463.115699	-237.114016	194.862278	899.096886	-507.837527	258.773175	840.490057	-506.180598	286.851849	857.414719	-488.207999	282.938448	754.443663	-506.019094	331.591374	664.793821	-483.937565	334.901545	635.749559	-380.988363	280.148837	573.113610	-502.351013	250.181727	493.509363	-485.082489	181.427041	435.162994	-486.447768	268.333684	485.391755	-449.448220	108.615444	357.408606	-468.703381	126.334305	347.524021	-391.507455	29.696150	337.713729	-428.408965	276.383477	192.562947	-440.307872	202.749855	228.358648	-392.716737	170.853999	221.192140	-498.540666	-162.637791	861.070027	-310.071025	37.480472	86.423639	-514.432662	34.507579	82.431279	-114.029312	
4	0.0200	501.730331	1286.736725	-126.618499	527.302359	1307.110659	-463.107120	510.136090	1335.622064	-299.437476	469.472664	1204.653651	-306.525857	610.403505	1035.886681	-108.432623	725.892403	837.317185	-130.462874	590.372659	1035.584597	-514.000455	703.180841	835.168913	-475.443523	13.143709	1103.958480	-320.013881	160.869751	1099.047780	-457.856545	141.049995	1114.730608	-181.142664	203.276479	1062.756999	-434.050497	191.232465	1084.008564	-201.559137	32.996798	1145.893126	-279.772815	36.234392	1142.327211	-362.678744	116.965778	1041.001345	-134.293595	99.133984	1004.567125	-490.529636	203.411436	1013.222693	-129.835591	290.657980	1003.147088	-138.932507	362.966395	962.819962	-115.382002	299.807991	1026.087961	-167.475223	482.588832	875.029608	-148.584200	475.091614	855.244783	-260.931160	459.967402	764.213510	-132.363255	433.005559	679.839873	-151.831047	378.194613	615.680454	-143.945242	444.257729	676.922075	-189.732673	311.848207	515.582965	-147.478028	315.588365	534.322241	-228.699164	522.933963	470.943666	-188.230500	417.464722	447.378136	-128.934944	440.919246	463.103833	-237.405870	194.856305	899.085823	-507.848483	258.839549	840.184683	-506.026956	286.821524	857.865611	-488.612185	282.860105	754.261616	-506.045684	331.790865	664.586439	-484.046172	334.886420	635.716997	-380.979043	280.378162	572.961537	-502.433619	250.230745	493.478566	-485.352038	181.384522	435.151788	-486.447954	268.327877	485.296659	-449.403879	108.446237	357.624685	-468.548855	126.299235	347.507227	-391.498764	29.672478	337.747740	-428.455440	276.381787	192.587082	-440.290649	202.747331	228.356667	-392.736743	170.836772	221.200550	-498.543373	-162.695894	860.999545	-310.195524	37.471493	86.443039	-514.437877	34.497220	82.435147	-114.033670	
5	0.0250	501.125231	1287.176955	-125.515800	527.163273	1307.599432	-462.894371	509.926722	1335.633815	-298.925299	469.415199	1204.782218	-306.513838	610.378480	1036.033938	-108.270709	725.841382	837.368800	-130.059444	590.113161	1035.713631	-513.498605	703.193830	835.132509	-475.357680	13.197013	1104.053187	-320.044191	160.667303	1099.075882	-457.408074	140.851822	1115.426459	-180.588210	203.139509	1063.111903	-433.898924	191.302352	1084.286526	-201.241524	33.027540	1146.016087	-279.825828	36.323575	1142.372134	-362.649904	116.416843	1041.506264	-133.615297	99.145380	1004.619341	-490.414451	203.135117	1013.801576	-129.380185	290.388884	1003.618861	-138.511127	362.490247	963.412221	-114.621849	299.842845	1025.775754	-167.404393	482.572178	875.266899	-148.425781	474.826348	855.642517	-260.442649	459.553708	764.755338	-132.030554	433.429515	680.577683	-151.900312	377.670271	616.232098	-143.548500	444.543451	677.295159	-189.665318	311.715579	515.745066	-147.387900	315.178362	534.735133	-228.336227	522.728055	471.199839	-188.037630	416.881007	447.917604	-128.390438	440.770470	463.726806	-237.530789	194.684038	899.339648	-507.556360	258.852002	840.206331	-505.885823	286.803755	857.894700	-488.488959	282.890821	754.293231	-505.893979	331.427122	664.898846	-483.637439	334.445315	636.425682	-380.173338	280.072644	573.277494	-502.159767	249.988644	493.746054	-484.931192	181.391014	435.173693	-486.334990	268.309065	485.255117	-449.168457	108.391314	357.595482	-468.529147	126.067448	347.729623	-391.390406	29.610828	337.702972	-428.435146	276.248280	192.634044	-440.155463	202.783771	228.607683	-392.519726	170.793487	221.257707	-498.515007	-162.638802	861.099398	-309.969400	37.339855	86.457937	-514.364298	33.454876	83.808091	-114.114428	
6	0.0300	501.094694	1287.274460	-125.424072	527.147926	1307.683822	-462.887375	509.951934	1335.657713	-298.857359	469.412499	1204.731100	-306.474917	610.384145	1036.070137	-108.250359	725.971237	837.505200	-130.021998	590.141188	1035.761653	-513.505634	703.201294	835.161797	-475.369267	13.217615	1104.063601	-320.084968	160.593248	1099.076003	-457.247762	140.865862	1115.457299	-180.566639	203.110503	1063.140021	-433.885391	191.315987	1084.299759	-201.156390	33.038574	1146.025911	-279.852470	36.395725	1142.435797	-362.633921	116.468960	1041.597672	-133.646097	99.140947	1004.621963	-490.381207	203.131421	1013.818845	-129.332912	290.362865	1003.670382	-138.404760	362.554744	963.446906	-114.566591	299.787486	1025.844293	-167.376830	482.524650	875.322522	-148.330624	474.801928	855.679426	-260.343534	459.509515	764.730254	-131.975757	433.403899	680.604119	-151.757234	377.601507	616.327519	-143.460288	444.551976	677.337947	-189.510285	311.688859	515.804789	-147.347758	315.095790	534.813469	-228.257779	522.666601	471.209804	-188.000167	416.783850	448.012960	-128.285003	440.763393	463.726556	-237.480043	194.654180	899.355322	-507.491087	258.839983	840.168456	-505.843700	286.788388	857.869384	-488.461938	282.873180	754.279335	-505.822929	331.364035	664.921850	-483.529867	334.329573	636.523385	-379.981483	280.023447	573.323690	-502.093746	249.909794	493.756349	-484.832233	181.376250	435.146731	-486.274750	268.278128	485.229593	-449.084260	108.345649	357.593432	-468.529710	125.898507	347.870686	-391.308121	29.578124	337.663686	-428.427004	276.221378	192.693479	-440.150963	202.812365	228.690408	-392.467994	170.777678	221.272450	-498.490096	-162.635348	860.999158	-310.354228	37.300118	86.504435	-514.311986	33.434698	83.838699	-114.179528	
